<?xml version="1.0" encoding="utf-8"?>
<!-- Generator: Adobe Illustrator 24.0.1, SVG Export Plug-In . SVG Version: 6.00 Build 0)  -->
<svg version="1.1" id="Layer_1" xmlns="http://www.w3.org/2000/svg" xmlns:xlink="http://www.w3.org/1999/xlink" x="0px" y="0px"
	 viewBox="0 0 350 100" style="enable-background:new 0 0 350 100;" xml:space="preserve">
<style type="text/css">
	.st0{fill:#78A0CF;}
	.st1{fill:#F1BC19;}
	.st2{fill:#CEE1F4;}
	.st3{fill:#FBCD59;}
	.st4{fill:#FFFFFF;}
	.st5{fill:#FEFDEF;}
	.st6{fill:#472B29;}
	.st7{fill:#F7931E;}
	.st8{font-family:'Calibri';}
	.st9{font-size:46.6397px;}
</style>
<g id="Layer_1_1_">
	<circle class="st0" cx="13" cy="29" r="2"/>
	<circle class="st1" cx="77" cy="13" r="1"/>
	<circle class="st2" cx="50" cy="50" r="37"/>
	<circle class="st1" cx="83" cy="15" r="4"/>
	<circle class="st0" cx="87" cy="24" r="2"/>
	<circle class="st3" cx="81" cy="76" r="2"/>
	<circle class="st3" cx="15" cy="63" r="4"/>
	<circle class="st0" cx="25" cy="87" r="2"/>
	<circle class="st4" cx="18.5" cy="53.5" r="2.5"/>
	<circle class="st1" cx="21" cy="67" r="1"/>
	<circle class="st4" cx="80" cy="34" r="1"/>
	<g>
		<path class="st5" d="M58.5,74.3c-1.6,0-3.2-0.5-3.2-4.3c0-4.2-1-9.7-2-14.5L53,53.7c-0.3-1.7-1.7-2.5-3-2.5s-2.7,0.8-3,2.4
			c-0.2,0.8-0.3,1.7-0.5,2.5c-0.9,4.7-1.8,9.6-1.8,13.6s-1.9,4.4-3.2,4.4c-3.4,0-4.7-5.7-6.1-11.8c-0.4-1.7-0.8-3.4-1.3-5.1
			c-0.8-2.9-2-5.1-3.2-7.3c-1.6-3-3.2-5.9-3.2-9.6c0-9.3,6.1-15,15.9-15c2.4,0,4.5,0.3,6.2,0.9c0.1,0,0.2,0,0.2,0h0.2
			c1.7-0.6,3.8-0.9,6.2-0.9c5,0,9.2,1.5,11.9,4.3c2.6,2.6,3.9,6.3,3.9,10.7c0,3.8-1.5,6.6-3.2,9.6c-1.2,2.2-2.4,4.5-3.2,7.3
			c-0.5,1.7-0.9,3.4-1.3,5.2C63.2,68.6,61.9,74.3,58.5,74.3z"/>
		<path class="st6" d="M56.5,26.1c4.8,0,8.8,1.4,11.4,4.1c2.5,2.5,3.7,6,3.7,10.2c0,3.6-1.4,6.2-3.1,9.3c-1.2,2.2-2.5,4.5-3.3,7.5
			c-0.5,1.7-0.9,3.5-1.3,5.2c-1.3,5.5-2.6,11.2-5.4,11.2c-1.3,0-2.5-0.3-2.5-3.6c0-4.3-1-9.8-2-14.6c-0.1-0.6-0.2-1.2-0.3-1.8
			c-0.3-1.8-1.8-3-3.7-3s-3.3,1.2-3.7,3c-0.2,0.8-0.3,1.7-0.5,2.5c-0.9,4.7-1.8,9.6-1.8,13.7c0,3.7-1.7,3.7-2.5,3.7
			c-2.9,0-4.2-5.7-5.5-11.2c-0.4-1.7-0.8-3.5-1.3-5.1c-0.8-2.9-2.1-5.2-3.3-7.5c-1.6-3.1-3.1-5.7-3.1-9.3c0-9,5.7-14.3,15.2-14.3
			c2.3,0,4.3,0.3,6,0.9c0.1,0.1,0.3,0.1,0.5,0.1s0.3,0,0.5-0.1C52.1,26.4,54.2,26.1,56.5,26.1 M56.5,24.8c-2.5,0-4.6,0.3-6.5,0.9
			c-1.8-0.6-4-0.9-6.5-0.9c-10.6,0-16.6,6.4-16.6,15.7c0,6.7,4.5,10.4,6.4,17.2c2.2,7.7,3,17.4,8.1,17.4c2.7,0,3.9-1.8,3.9-5.1
			c0-4.7,1.3-10.8,2.3-16c0.3-1.4,1.4-2,2.4-2s2.1,0.6,2.3,1.9c1,5.1,2.3,11.4,2.3,16.1c0,3.3,1.3,5,3.9,5c5.1,0,5.9-9.7,8.1-17.4
			c1.9-6.8,6.4-10.5,6.4-17.2C73.1,31.1,67.1,24.8,56.5,24.8L56.5,24.8z"/>
	</g>
	<g>
		<path class="st6" d="M65.3,32.2c-0.1,0-0.1,0-0.2-0.1c-2-1.8-4.7-2.8-7.9-3c-0.1,0-0.2-0.1-0.2-0.3s0.1-0.2,0.3-0.2
			c3.3,0.2,6.1,1.2,8.2,3.1c0.1,0.1,0.1,0.3,0,0.4C65.5,32.1,65.4,32.2,65.3,32.2z"/>
	</g>
	<g>
		<path class="st6" d="M58.2,72.1c-0.6,0-1-0.3-1-2c0-0.1,0.1-0.3,0.3-0.3s0.3,0.1,0.3,0.3c0,1.4,0.3,1.5,0.5,1.5
			c1.1-0.6,2.4-6.5,3-9c0.4-1.7,0.7-3.4,1.2-5c0.9-3.2,2.3-5.6,3.5-7.8c1.5-2.7,2.7-4.8,2.7-7.6c0-1.3-0.1-2.5-0.4-3.6
			c0-0.1,0-0.3,0.2-0.3c0.1,0,0.3,0,0.3,0.2c0.3,1.2,0.4,2.4,0.4,3.7c0,2.9-1.2,5.1-2.8,7.9c-1.2,2.2-2.6,4.6-3.5,7.7
			c-0.4,1.6-0.8,3.4-1.2,5C60.6,67.1,59.5,71.5,58.2,72.1C58.3,72.1,58.2,72.1,58.2,72.1z"/>
	</g>
	<g>
		<path class="st6" d="M42.9,60C42.8,60,42.8,60,42.9,60c-0.2,0-0.3-0.1-0.2-0.3c0.2-1.6,0.5-3.3,0.9-5.3c0.1-0.6,0.2-1.2,0.3-1.7
			v-0.1c0.6-2.7,3-4.6,5.9-4.5c0.1,0,0.2,0.1,0.2,0.3c0,0.1-0.1,0.2-0.3,0.2c-2.6,0-4.9,1.7-5.4,4.1v0.1c-0.1,0.6-0.2,1.1-0.3,1.7
			c-0.4,1.9-0.6,3.7-0.9,5.2C43.1,59.9,43,60,42.9,60z"/>
	</g>
	<g>
		<path class="st6" d="M41.2,71.6c-0.1,0-0.3-0.1-0.3-0.3S41,71,41.2,71c0.3,0,0.6,0,0.6-1.5c0-1.1,0-2.3,0.1-3.6
			c0-0.1,0.1-0.2,0.3-0.2c0.1,0,0.2,0.1,0.2,0.3c-0.1,1.3-0.1,2.5-0.1,3.5C42.4,71.3,41.9,71.6,41.2,71.6L41.2,71.6z"/>
	</g>
	<g>
		<path class="st7" d="M48.9,54.4L48.9,54.4L48.9,54.4z"/>
	</g>
	<g>
		<path class="st6" d="M54.6,31.7c-0.2,0-0.4-0.1-0.5-0.2c-2.6-3.1-6.3-5-10.4-5.3c-0.4,0-0.7-0.4-0.6-0.7c0-0.4,0.4-0.7,0.7-0.6
			c4.5,0.3,8.5,2.4,11.4,5.8c0.3,0.3,0.2,0.7-0.1,1C54.9,31.6,54.8,31.7,54.6,31.7z"/>
	</g>
	<g>
		<path class="st6" d="M52.3,33.9c-0.1,0-0.2,0-0.2-0.1c-1.9-2.5-5.2-4.3-8.6-4.7c-2.2-0.2-5.5,0.1-8.5,2.7c-0.1,0.1-0.3,0.1-0.4,0
			s-0.1-0.3,0-0.4c3.1-2.8,6.5-3.1,8.8-2.8c3.5,0.3,6.9,2.2,8.9,4.9C52.4,33.6,52.4,33.8,52.3,33.9C52.4,33.9,52.3,33.9,52.3,33.9z"
			/>
	</g>
</g>
<g id="Layer_2_1_">
	<text transform="matrix(0.6954 0 0 1 95.5868 72.1)" class="st1 st8 st9">Chandan Dentistry</text>
</g>
</svg>
