<svg xmlns="http://www.w3.org/2000/svg" x="0px" y="0px"
width="100" height="100"
viewBox="0 0 100 100"
style=" fill:#000000;"><circle cx="13" cy="29" r="2" fill="#78a0cf"></circle><circle cx="77" cy="13" r="1" fill="#f1bc19"></circle><circle cx="50" cy="50" r="37" fill="#cee1f4"></circle><circle cx="83" cy="15" r="4" fill="#f1bc19"></circle><circle cx="87" cy="24" r="2" fill="#78a0cf"></circle><circle cx="81" cy="76" r="2" fill="#fbcd59"></circle><circle cx="15" cy="63" r="4" fill="#fbcd59"></circle><circle cx="25" cy="87" r="2" fill="#78a0cf"></circle><circle cx="18.5" cy="53.5" r="2.5" fill="#fff"></circle><circle cx="21" cy="67" r="1" fill="#f1bc19"></circle><circle cx="80" cy="34" r="1" fill="#fff"></circle><g><path fill="#fefdef" d="M58.517,74.3c-1.604,0-3.243-0.51-3.243-4.297c0-4.235-1.042-9.672-1.961-14.468l-0.345-1.812 c-0.29-1.692-1.696-2.455-2.96-2.455c-1.252,0-2.677,0.754-3.037,2.438c-0.156,0.843-0.317,1.688-0.481,2.544 c-0.898,4.708-1.828,9.575-1.828,13.61c0,3.979-1.851,4.439-3.244,4.439c-3.426,0-4.744-5.715-6.138-11.766 c-0.39-1.693-0.793-3.443-1.253-5.1c-0.814-2.862-2.043-5.141-3.231-7.344c-1.624-3.011-3.158-5.856-3.158-9.637 c0-9.254,6.104-15.003,15.931-15.003c2.384,0,4.479,0.304,6.225,0.904c0.074,0.025,0.151,0.038,0.228,0.038 s0.154-0.013,0.228-0.038c1.747-0.6,3.841-0.904,6.225-0.904c5.036,0,9.164,1.484,11.939,4.291 c2.593,2.623,3.937,6.324,3.886,10.704c0,3.789-1.535,6.633-3.159,9.645c-1.188,2.204-2.417,4.482-3.231,7.341 c-0.469,1.667-0.879,3.441-1.276,5.156C63.24,68.61,61.924,74.3,58.517,74.3z"></path><path fill="#472b29" d="M56.474,26.15c4.845,0,8.801,1.412,11.441,4.083c2.458,2.487,3.732,6.015,3.684,10.22 c0,3.604-1.425,6.246-3.074,9.304c-1.206,2.237-2.454,4.55-3.289,7.485c-0.473,1.682-0.885,3.464-1.284,5.187 c-1.27,5.492-2.584,11.17-5.434,11.17c-1.287,0-2.543-0.278-2.543-3.597c0-4.302-1.049-9.772-1.974-14.6 c-0.118-0.616-0.234-1.221-0.341-1.787c-0.307-1.794-1.809-3.048-3.652-3.048c-1.843,0-3.339,1.202-3.729,3.03 c-0.152,0.821-0.313,1.663-0.476,2.517c-0.905,4.741-1.841,9.644-1.841,13.745c0,3.739-1.655,3.739-2.544,3.739 c-2.869,0-4.184-5.706-5.456-11.223c-0.392-1.7-0.797-3.458-1.264-5.139c-0.834-2.932-2.081-5.244-3.287-7.48 c-1.649-3.059-3.074-5.7-3.074-9.305c0-8.956,5.694-14.303,15.231-14.303c2.307,0,4.325,0.292,5.997,0.866 c0.147,0.051,0.301,0.076,0.455,0.076s0.308-0.025,0.455-0.076C52.149,26.441,54.167,26.15,56.474,26.15 M56.474,24.75 c-2.473,0-4.624,0.314-6.453,0.942c-1.828-0.628-3.979-0.942-6.453-0.942c-10.647,0-16.631,6.386-16.631,15.703 c0,6.7,4.479,10.364,6.415,17.169C35.503,65.369,36.363,75,41.418,75c2.689,0,3.944-1.789,3.944-5.139 c0-4.711,1.325-10.773,2.293-16.008c0.269-1.256,1.317-1.884,2.352-1.884s2.057,0.628,2.272,1.884 c0.968,5.13,2.295,11.439,2.295,16.15c0,3.35,1.254,4.997,3.943,4.997c5.055,0,5.915-9.736,8.066-17.378 c1.936-6.805,6.416-10.469,6.416-17.169C73.106,31.136,67.12,24.75,56.474,24.75L56.474,24.75z"></path></g><g><path fill="#472b29" d="M65.334,32.173c-0.059,0-0.118-0.021-0.166-0.063c-2.046-1.81-4.717-2.814-7.939-2.984 c-0.138-0.007-0.244-0.125-0.236-0.263s0.136-0.245,0.263-0.236c3.291,0.174,6.142,1.249,8.244,3.109 c0.104,0.092,0.113,0.25,0.021,0.353C65.472,32.144,65.403,32.173,65.334,32.173z"></path></g><g><path fill="#472b29" d="M58.188,72.084c-0.646,0-1.046-0.329-1.046-1.968c0-0.138,0.112-0.25,0.25-0.25 s0.25,0.112,0.25,0.25c0,1.354,0.258,1.459,0.489,1.467c1.104-0.624,2.398-6.478,2.955-8.996c0.367-1.662,0.746-3.378,1.191-5.031 c0.857-3.154,2.263-5.639,3.504-7.83c1.528-2.7,2.735-4.832,2.735-7.617c0.014-1.275-0.122-2.483-0.406-3.593 c-0.034-0.134,0.046-0.27,0.18-0.304c0.135-0.035,0.27,0.047,0.304,0.18c0.294,1.152,0.436,2.404,0.421,3.72 c0,2.913-1.236,5.096-2.8,7.86c-1.227,2.166-2.616,4.621-3.457,7.715c-0.441,1.641-0.819,3.352-1.185,5.006 c-0.982,4.442-2.044,8.823-3.286,9.37C58.257,72.077,58.223,72.084,58.188,72.084z"></path></g><g><path fill="#472b29" d="M42.853,60.036c-0.012,0-0.024-0.001-0.036-0.003c-0.136-0.02-0.231-0.146-0.212-0.283 c0.227-1.585,0.508-3.304,0.86-5.254c0.107-0.594,0.215-1.174,0.32-1.735l0.018-0.089c0.586-2.698,2.98-4.557,5.884-4.514 c0.138,0.002,0.249,0.115,0.247,0.253c-0.002,0.138-0.139,0.244-0.253,0.247c-2.642-0.031-4.854,1.657-5.389,4.118l-0.016,0.078 c-0.105,0.56-0.212,1.138-0.319,1.731c-0.351,1.945-0.631,3.657-0.857,5.236C43.082,59.946,42.975,60.036,42.853,60.036z"></path></g><g><path fill="#472b29" d="M41.236,71.585c-0.138,0-0.25-0.112-0.25-0.25c0-0.138,0.111-0.25,0.25-0.25 c0.305,0,0.62-0.001,0.62-1.469c0-1.077,0.05-2.273,0.147-3.555c0.011-0.138,0.147-0.239,0.269-0.23 c0.138,0.01,0.241,0.131,0.23,0.268c-0.097,1.269-0.146,2.453-0.146,3.517C42.355,71.261,41.945,71.583,41.236,71.585 L41.236,71.585z"></path></g><g><path fill="#f7931e" d="M48.944,54.437c0.001,0.006,0.002,0.012,0.003,0.018C48.946,54.449,48.945,54.443,48.944,54.437z"></path></g><g><path fill="#472b29" d="M54.598,31.666c-0.199,0-0.396-0.084-0.534-0.247c-2.636-3.108-6.344-4.984-10.441-5.283 c-0.386-0.028-0.675-0.364-0.647-0.749c0.028-0.386,0.377-0.678,0.749-0.647c4.476,0.327,8.527,2.377,11.407,5.774 c0.25,0.295,0.214,0.737-0.081,0.987C54.918,31.611,54.757,31.666,54.598,31.666z"></path></g><g><path fill="#472b29" d="M52.295,33.883c-0.076,0-0.15-0.034-0.199-0.099c-1.92-2.541-5.214-4.327-8.596-4.663 c-2.219-0.219-5.493,0.072-8.468,2.712c-0.104,0.091-0.261,0.082-0.353-0.021c-0.092-0.103-0.082-0.261,0.021-0.353 c3.11-2.76,6.525-3.066,8.85-2.835c3.517,0.349,6.944,2.211,8.945,4.859c0.083,0.11,0.062,0.267-0.048,0.35 C52.4,33.867,52.348,33.883,52.295,33.883z"></path></g></svg>